<svg baseProfile="tiny" xmlns="http://www.w3.org/2000/svg" width="86" height="50" viewBox="0 0 86 50"><g fill="#22A8C3"><path d="M13.6 42.6V48c-1.5 1.2-3.7 2-5.8 2C3.4 50 0 46.7 0 42.5s3.5-7.4 8-7.4c2.1 0 4.3.8 5.7 2.1L12.3 39c-1.1-1.1-2.7-1.7-4.3-1.7-3 0-5.4 2.3-5.4 5.2 0 3 2.4 5.3 5.4 5.3 1.1 0 2.4-.4 3.4-1v-4.1h2.2zM28.6 49.9l-7.9-10.6v10.6h-2.5V35.1h2.5l8 10.6V35.1h2.5v14.8h-2.6zM50.5 42.5c0 4.2-3.4 7.5-7.9 7.5s-7.9-3.3-7.9-7.5 3.4-7.4 7.9-7.4c4.5-.1 7.9 3.2 7.9 7.4zm-13.3 0c0 2.9 2.5 5.3 5.4 5.3s5.3-2.3 5.3-5.3-2.4-5.2-5.3-5.2-5.4 2.3-5.4 5.2zM64.3 36.5l-1 2.2c-1.6-1-3.2-1.4-4.4-1.4-1.5 0-2.4.6-2.4 1.5 0 3.2 8 1.5 8 6.8 0 2.6-2.3 4.3-5.6 4.3-2.3 0-4.5-.9-6.1-2.3l1.1-2.1c1.5 1.4 3.4 2.1 5.1 2.1 1.7 0 2.8-.7 2.8-1.8 0-3.3-8-1.4-8-6.7 0-2.5 2.2-4.1 5.4-4.1 1.8 0 3.7.6 5.1 1.5zM68.3 49.9V35.1h2.5v14.8h-2.5zM85.8 36.5l-1 2.2c-1.6-1-3.2-1.4-4.4-1.4-1.5 0-2.4.6-2.4 1.5 0 3.2 8 1.5 8 6.8 0 2.6-2.3 4.3-5.6 4.3-2.3 0-4.5-.9-6.1-2.3l1.1-2.1c1.5 1.4 3.4 2.1 5.1 2.1 1.7 0 2.8-.7 2.8-1.8 0-3.3-8-1.4-8-6.7 0-2.5 2.2-4.1 5.4-4.1 1.9 0 3.7.6 5.1 1.5z"/></g><path fill="#22A8C3" d="M54.7 7.2l-1.1 1.1c.8 1.3 1.1 3 .5 4.6-1 2.7-4 4.1-6.7 3.1-.4-.1-.7-.3-1.1-.5L43 18.8l-3-3c-1.4.9-3.1 1.2-4.8.6-2.8-1-4.2-4.1-3.2-6.8.1-.4.4-.8.6-1.2l-1.3-1.3-.2.4c-1.3 2.2-2 4.7-2 7.2 0 7.7 6.2 13.9 13.9 13.9s13.9-6.2 14-13.9c0-2.5-.7-5-2-7.2l-.3-.3z"/><path fill="#22A8C3" d="M34.2 10c-.4.5-.6 1.1-.6 1.7 0 1.6 1.3 2.8 2.8 2.8.7 0 1.3-.2 1.7-.6L34.2 10zM48.2 13.7c.5.3 1 .5 1.6.5 1.6 0 2.8-1.3 2.8-2.8 0-.6-.2-1.1-.5-1.6l-3.9 3.9zM43.1 16.7L31.6 5.2l.4-.5c2.8-3 6.7-4.7 10.9-4.7S51.2 1.8 54 4.9l.4.5-11.3 11.3zM33.4 5.2l9.6 9.6 9.5-9.4c-2.6-2.5-6-4-9.6-4-3.6-.1-6.9 1.3-9.5 3.8zM30.4 24.1L29 24c-5.7-.4-13.6-1.8-18.7-6.4-3.2-2.8-3.8-5.5-3.8-5.6l-.2-.8h20.9l-.1.8c-.1.7-.1 1.4-.1 2.1 0 3.2.9 6.3 2.7 8.9l.7 1.1zM55.6 24.1l.7-1.1c1.8-2.6 2.7-5.7 2.7-8.8 0-.7 0-1.5-.1-2.2l-.1-.8h20.9l-.2.8c0 .1-.6 2.8-3.8 5.6-5.1 4.6-13 6-18.8 6.4l-1.3.1z"/></svg>